# xmcd CD database file
#
# Track frame offsets:
#	150
#	15107
#	29210
#	46225
#	63312
#	78050
#	91725
#	108707
#	130777
#	139952
#	159645
#	179065
#
# Disc length: 2569 seconds
#
# Revision: 0
# Processed by: cddbd v1.5.1PL0 Copyright (c) Steve Scherf et al.
# Submitted via: CDex 1.51
#
DISCID=9a0a070c
DTITLE=John Williams - The John Williams Trio
DYEAR=1955
DGENRE=Jazz
TTITLE0=Baubles, Bangles And Beads
TTITLE1=Shiloh
TTITLE2=Good Morning Heartache
TTITLE3=Flamingo
TTITLE4=A Sleeping Bee
TTITLE5=How Strange
TTITLE6=Manteca
TTITLE7=Someday My Prince Will Come
TTITLE8=Like Someone In Love
TTITLE9=Good Morning Blues
TTITLE10=Okefenokee Holiday
TTITLE11=The Girl Next Door
EXTD=YEAR: 1955
EXTT0=
EXTT1=
EXTT2=
EXTT3=
EXTT4=
EXTT5=
EXTT6=
EXTT7=
EXTT8=
EXTT9=
EXTT10=
EXTT11=
PLAYORDER=
